<svg width="344" height="76" viewBox="0 0 344 76" fill="none" xmlns="http://www.w3.org/2000/svg">
<path d="M92.6449 48.7731H89.592L86.7453 51.1659H86.1677V48.7731H84.1461V55.6629H86.1677V52.8987H86.7865L89.7157 55.6629H92.7274L88.5193 52.0323L92.6449 48.7731Z" fill="#878787"/>
<path d="M143.184 48.7731H140.09L137.284 51.1659H136.707V48.7731H134.685V55.6629H136.665V52.8987H137.325L140.255 55.6629H143.266L139.058 52.0323L143.184 48.7731Z" fill="#878787"/>
<path d="M178.252 48.7731H175.116L172.311 51.1659H171.774V48.7731H169.753V55.6629H171.733V52.8987H172.311L175.322 55.6629H178.293L174.085 52.0323L178.252 48.7731Z" fill="#878787"/>
<path d="M94.5014 53.1875C94.5014 53.7651 94.2952 53.8888 93.9651 53.8888H93.5526V55.6629C93.5526 55.6629 94.3777 55.6629 94.8315 55.6216C95.2853 55.5803 95.7391 55.3741 95.9867 55.0028C96.2342 54.6315 96.4817 54.1364 96.4817 53.1462V50.5058H99.6172V55.6629H101.639V48.7731H94.5014V53.1875Z" fill="#878787"/>
<path d="M105.641 53.7238V48.7731H103.66V55.6629H106.672L110.344 50.7121V55.6629H112.365V48.7731H109.436L105.641 53.7238Z" fill="#878787"/>
<path d="M146.526 53.7238V48.7731H144.504V55.6629H147.516L151.229 50.7121V55.6629H153.25V48.7731H150.321L146.526 53.7238Z" fill="#878787"/>
<path d="M294.264 53.7238V48.7731H292.284V55.6629H295.296L298.967 50.7121V55.6629H300.989V48.7731H298.06L294.264 53.7238Z" fill="#878787"/>
<path d="M315.222 53.7238V48.7731H313.201V55.6629H316.212L319.926 50.7121V55.6629H321.906V48.7731H318.977L315.222 53.7238Z" fill="#878787"/>
<path d="M125.897 53.7238V48.7731H123.876V55.6629H126.888L130.601 50.7121V55.6629H132.581V48.7731H129.652L125.897 53.7238Z" fill="#878787"/>
<path d="M119.874 51.2484H116.367V48.7731H114.346V55.6629H116.367V52.9812H119.874V55.6629H121.896V48.7731H119.874V51.2484Z" fill="#878787"/>
<path d="M185.306 48.6906H181.552C181.552 48.6906 179.407 48.6906 179.407 50.8359V53.7651C179.407 53.7651 179.407 55.6629 181.305 55.6629H185.43C185.43 55.6629 187.41 55.6629 187.41 53.6826V52.9812H185.389V53.27C185.389 53.8888 184.77 53.8888 184.77 53.8888H182.047C181.428 53.8888 181.428 53.27 181.428 53.27V51.1247C181.428 50.4233 182.13 50.4233 182.13 50.4233H184.811C185.43 50.4233 185.43 51.0422 185.43 51.0422V51.3722H187.452V50.7946C187.41 50.8359 187.41 48.6906 185.306 48.6906Z" fill="#878787"/>
<path d="M240.672 48.6906H236.918C236.918 48.6906 234.773 48.6906 234.773 50.8359V53.7651C234.773 53.7651 234.773 55.6629 236.67 55.6629H240.796C240.796 55.6629 242.776 55.6629 242.776 53.6826V50.8359C242.776 50.8359 242.776 48.6906 240.672 48.6906ZM240.796 53.27C240.796 53.8888 240.177 53.8888 240.177 53.8888H237.454C236.835 53.8888 236.835 53.27 236.835 53.27V51.1247C236.835 50.4233 237.537 50.4233 237.537 50.4233H240.218C240.837 50.4233 240.837 51.0422 240.837 51.0422V53.27H240.796Z" fill="#878787"/>
<path d="M165.668 48.6906H161.914C161.914 48.6906 159.769 48.6906 159.769 50.8359V51.3722H161.79V51.1247C161.79 50.4233 162.492 50.4233 162.492 50.4233H165.173C165.792 50.4233 165.792 51.0422 165.792 51.0422V51.3722H162.285V52.9399H165.792V53.27C165.792 53.8888 165.173 53.8888 165.173 53.8888H162.45C161.832 53.8888 161.832 53.27 161.832 53.27V52.9399H159.81V53.7238C159.81 53.7238 159.81 55.6216 161.708 55.6216H165.833C165.833 55.6216 167.814 55.6216 167.814 53.6413V50.7946C167.814 50.8359 167.814 48.6906 165.668 48.6906Z" fill="#878787"/>
<path d="M189.267 55.6629H191.289V50.5058H194.795V55.6629H196.776V48.7731H189.267V55.6629Z" fill="#878787"/>
<path d="M200.778 52.9812H205.687V51.3722H200.778V50.4646H205.852V48.7731H198.797V55.6629H205.852V53.9714H200.778V52.9812Z" fill="#878787"/>
<path d="M274.832 52.9812H279.701V51.3722H274.832V50.4646H279.866V48.7731H272.852V55.6629H279.866V53.9714H274.832V52.9812Z" fill="#878787"/>
<path d="M212.494 48.7739H207.791V55.6637H209.813V53.7659C209.813 53.7659 212.123 53.7659 212.783 53.7659C213.443 53.7659 214.103 53.4771 214.475 53.0233C214.846 52.5695 214.928 51.9094 214.928 51.2905C214.928 50.6717 214.846 50.2179 214.64 49.8466C214.433 49.4753 214.021 48.7739 212.494 48.7739ZM212.123 52.0332H209.813V50.5479H212.123C212.824 50.5479 212.907 50.7955 212.907 51.2493C212.907 51.6619 212.907 52.0332 212.123 52.0332Z" fill="#878787"/>
<path d="M338.45 51.1247C337.79 51.1247 335.479 51.1247 335.479 51.1247V48.7318H333.458V55.6216H338.161C339.687 55.6216 340.141 55.0027 340.306 54.6727C340.471 54.3426 340.595 53.8888 340.595 53.3525C340.595 52.8162 340.512 52.1973 340.141 51.7848C339.77 51.4135 339.11 51.1247 338.45 51.1247ZM337.79 53.8888H335.479V52.8574H337.79C338.573 52.8574 338.573 52.9812 338.573 53.3938C338.573 53.8063 338.491 53.8888 337.79 53.8888Z" fill="#878787"/>
<path d="M216.414 50.5058H219.137V55.6629H221.117V50.5058H223.84V48.7731H216.414V50.5058Z" fill="#878787"/>
<path d="M230.895 51.2072H227.388V48.7731H225.366V55.6629H227.388V52.9399H230.895V55.6629H232.875V48.7731H230.895V51.2072Z" fill="#878787"/>
<path d="M251.481 48.7731H250.533L246.737 53.7238V48.7731H244.757V55.6629H245.582H246.737H247.727L251.481 50.7534V55.6629H253.462V48.7731H251.564H251.481Z" fill="#878787"/>
<path d="M265.509 53.6826L263.446 48.7731H260.228V55.6629H262.249V51.0009L264.271 55.6629H266.746L268.768 50.9596V55.6629H270.789V48.7731H267.53L265.509 53.6826Z" fill="#878787"/>
<path d="M343.648 48.7731H341.668V55.6629H343.648V48.7731Z" fill="#878787"/>
<path d="M289.726 48.7318H282.836V52.0323C282.836 52.0323 282.877 52.6099 282.671 53.105C282.506 53.6 282.217 53.8888 282.217 53.8888H281.64V57.1893H283.537V55.6628H288.612V57.1893H290.469V53.8888H289.767V48.7318H289.726ZM287.746 53.9301H284.445C284.445 53.9301 284.651 53.6413 284.734 53.2287C284.816 52.8162 284.816 52.0736 284.816 52.0736V50.5058H287.746V53.9301Z" fill="#878787"/>
<path d="M310.519 48.7318H308.498V53.9301H304.991V48.7731H302.969V55.6216H309.323V57.1893H311.221V53.9301H310.519V48.7318Z" fill="#878787"/>
<path d="M329.456 51.2072H325.908V48.7731H323.927V55.6629H325.908V52.9812H329.456V55.6629H331.436V48.7731H329.456V51.2072Z" fill="#878787"/>
<path d="M246.861 46.834C247.191 47.0815 247.686 47.164 248.14 47.2053C248.511 47.2465 248.8 47.2465 248.882 47.2465C248.965 47.2465 249.212 47.2465 249.625 47.2053C250.079 47.164 250.574 47.0815 250.904 46.834C251.234 46.5864 251.358 46.0914 251.358 45.8026V45.39H249.625C249.625 45.39 249.625 45.5138 249.625 45.6376C249.625 45.7613 249.625 45.9676 249.46 46.0089C249.336 46.0501 249.047 46.0501 248.924 46.0501H248.882H248.841C248.717 46.0501 248.428 46.0501 248.305 46.0089C248.181 45.9676 248.14 45.7613 248.14 45.6376C248.14 45.5138 248.14 45.39 248.14 45.39H246.407V45.8026C246.407 46.0914 246.531 46.5864 246.861 46.834Z" fill="#878787"/>
<path d="M118.554 43.121H124.825V16.9646H113.149L104.486 37.9227H104.114L95.4504 16.9646H83.7749V43.1623H90.0459V22.1628H90.871L99.8648 43.121H108.776L117.77 22.1628H118.595V43.121H118.554ZM129.569 43.121H156.303V38.1703H135.799V32.1881H155.643V27.6499H135.799V21.9153H156.303V16.9646H129.569V43.121ZM169.959 37.964C170.495 36.355 171.403 33.6733 171.857 32.3119C172.558 30.2491 173.26 27.1961 174.869 25.5459C176.478 23.8956 178.252 23.4005 182.006 23.4005H185.059V37.964H169.959ZM160.223 43.1623H191.33V17.0058H185.059H181.593C179.118 17.0058 176.643 17.0058 173.92 18.3673C171.197 19.7287 168.144 22.9467 166.865 26.9486C165.999 29.6715 164.018 35.6949 163.276 37.9227H162.038H160.264V43.1623H160.223ZM202.593 22.1628H218.765V16.9646H196.322V43.1623H202.593V22.1628ZM242.158 30.084C242.158 34.4572 238.61 38.0052 234.236 38.0052C229.863 38.0052 226.315 34.4572 226.315 30.084C226.315 25.7109 229.863 22.1628 234.236 22.1628C238.61 22.1216 242.158 25.6696 242.158 30.084ZM247.768 30.084C247.768 22.6167 241.704 16.552 234.236 16.552C226.769 16.552 220.704 22.6167 220.704 30.084C220.704 37.5514 226.769 43.6161 234.236 43.6161C241.704 43.6161 247.768 37.5514 247.768 30.084ZM273.43 26.1234C273.43 28.9701 272.522 30.2078 269.345 30.2078H258.908V22.1628H269.345C272.646 22.1628 273.43 23.5656 273.43 26.1234ZM279.701 26.1234C279.701 19.5224 277.102 16.9646 270.501 16.9646H252.637V43.1623H258.908V35.4474H270.583C277.019 35.4061 279.701 32.7657 279.701 26.1234ZM305.733 30.084C305.733 34.4572 302.185 38.0052 297.812 38.0052C293.439 38.0052 289.891 34.4572 289.891 30.084C289.891 25.7109 293.439 22.1628 297.812 22.1628C302.185 22.1216 305.733 25.6696 305.733 30.084ZM311.344 30.084C311.344 22.6167 305.28 16.552 297.812 16.552C290.345 16.552 284.28 22.6167 284.28 30.084C284.28 37.5514 290.345 43.6161 297.812 43.6161C305.28 43.6161 311.344 37.5514 311.344 30.084ZM337.377 37.964H322.277C322.813 36.355 323.721 33.6733 324.175 32.3119C324.876 30.2491 325.578 27.1961 327.187 25.5459C328.796 23.8956 330.57 23.4005 334.324 23.4005H337.377V37.964ZM343.648 43.1623V17.0058H333.953C331.477 17.0058 329.002 17.0058 326.279 18.3673C323.556 19.7287 320.503 22.9467 319.224 26.9486C318.358 29.6715 316.378 35.6949 315.635 37.9227H314.397H312.623V43.1623H343.648Z" fill="#014751"/>
<path fill-rule="evenodd" clip-rule="evenodd" d="M38.8127 42.2615H45.2355V64.0485L47.1519 64.8339V42.2888H75.9551V44.0089H48.872V67.3978L45.2355 65.9074V69.054L31.95 75.6811V54.9942L24.7044 59.0195V44.0089H0V42.2888H26.4245V56.0963L31.95 53.0266V42.2888H36.7596V52.3222L33.67 54.0386V72.9009L43.5155 67.9898V65.2025L38.8127 63.2751V42.2615ZM43.5155 63.3436V43.9815H40.5328V62.1212L43.5155 63.3436ZM33.67 52.071L35.0396 51.3101V44.0089H33.67V52.071Z" fill="#B2B2B2"/>
<path fill-rule="evenodd" clip-rule="evenodd" d="M43.5204 0V10.0867L49.2622 11.6124V33.4219H75.9005V35.8676H46.8164V13.4931L43.5204 12.6173V35.8676H37.2469V8.41972L41.0747 9.43683V3.83361L31.1073 8.46604V20.7941L35.5093 18.4418V35.8676H28.6616V24.8741L26.76 25.8903V35.8676H0V33.4219H24.3143V24.4242L28.6616 22.1011V6.90575L43.5204 0ZM31.1073 23.5672V33.4219H33.0636V22.5218L31.1073 23.5672ZM41.0747 11.9674L39.6926 11.6002V33.4219H41.0747V11.9674Z" fill="#014751"/>
</svg>
