<svg width="17" height="15" viewBox="0 0 17 15" fill="none" xmlns="http://www.w3.org/2000/svg">
<path fill-rule="evenodd" clip-rule="evenodd" d="M8.72289 11.2583C8.10838 11.8642 7.50051 12.4594 6.89787 13.06C6.68717 13.27 6.45015 13.3859 6.14793 13.3694C5.9421 13.3582 5.82656 13.2657 5.76348 13.0672C5.3023 11.6157 4.83358 10.1668 4.37448 8.7147C4.32974 8.57331 4.26237 8.50538 4.12207 8.46191C3.03463 8.12502 1.94936 7.78083 0.865479 7.43241C0.704996 7.38082 0.542509 7.3145 0.403268 7.2209C0.160928 7.05803 0.126343 6.79907 0.347646 6.61156C0.552127 6.43829 0.794549 6.29321 1.04291 6.19367C2.41697 5.64311 3.79804 5.11038 5.1766 4.57131C8.49279 3.27455 11.8091 1.97791 15.125 0.68053C15.7607 0.431812 16.2546 0.776749 16.1951 1.47127C16.1559 1.9291 16.0382 2.38095 15.9438 2.83293C15.209 6.35094 14.4713 9.86833 13.7345 13.3859C13.7331 13.3927 13.7326 13.3997 13.7311 13.4064C13.5509 14.2111 12.9739 14.4311 12.3159 13.9406C11.1737 13.089 10.0344 12.2335 8.89365 11.3799C8.8397 11.3396 8.78392 11.3017 8.72289 11.2583ZM6.19908 12.3662C6.21684 12.2836 6.22916 12.2455 6.23276 12.2066C6.30525 11.4155 6.38101 10.6247 6.44519 9.83283C6.45947 9.65711 6.5112 9.52734 6.64537 9.40532C8.37633 7.8311 10.1019 6.25083 11.8289 4.67213C12.3202 4.22306 12.8134 3.77622 13.2999 3.32191C13.351 3.27422 13.3621 3.18256 13.3918 3.11131C13.3166 3.08975 13.2324 3.03508 13.1682 3.05321C13.0199 3.0951 12.8705 3.15486 12.7404 3.23772C10.1727 4.87403 7.60839 6.5156 5.04063 8.15174C4.90998 8.23498 4.8727 8.30349 4.92509 8.46296C5.33167 9.70041 5.72647 10.9418 6.12553 12.1818C6.14117 12.2304 6.16323 12.2769 6.19908 12.3662Z" fill="white"/>
</svg>
