<svg width="16" height="17" viewBox="0 0 16 17" fill="none" xmlns="http://www.w3.org/2000/svg">
<path fill-rule="evenodd" clip-rule="evenodd" d="M13.4884 11.1921L13.4884 11.1921L13.488 11.1917C13.3973 11.1267 13.3067 11.0616 13.2164 10.9964C12.1723 10.2415 11.2173 10.1828 10.4382 11.3973C10.0007 12.0791 9.38829 12.109 8.74789 11.8099C6.98245 10.9858 5.61919 9.71618 4.82064 7.86902C4.4674 7.05179 4.47205 6.3191 5.29854 5.74109C5.73612 5.43542 6.17697 5.07371 6.14172 4.40579C6.0957 3.53488 4.04152 0.624404 3.23033 0.317216C2.89466 0.190082 2.56038 0.198356 2.21889 0.316502C0.316772 0.974978 -0.471083 2.5853 0.283438 4.49201C2.5344 10.1806 6.4957 14.1408 11.9487 16.5579C12.1754 16.6582 12.4204 16.7146 12.6042 16.757C12.6726 16.7727 12.7324 16.7865 12.7798 16.7999C14.0213 16.8128 15.4756 15.5815 15.8956 14.3595C16.251 13.3263 15.6339 12.8407 15.0202 12.3579L15.0202 12.3579C14.9357 12.2914 14.8512 12.225 14.7694 12.1572C14.3578 11.816 13.9228 11.5038 13.4884 11.1921ZM8.65521 0.900428C12.6417 1.53148 14.4802 3.4828 14.9878 7.61602C14.9981 7.69916 14.9996 7.79144 15.0011 7.88505V7.88507C15.0064 8.22129 15.012 8.57458 15.4259 8.58286C15.8881 8.59195 15.8709 8.19807 15.8555 7.84535C15.8525 7.77605 15.8496 7.70834 15.8503 7.64558C15.8971 3.75286 12.5998 0.144134 8.77047 0.011078C8.70256 0.0211387 8.61757 0.0151364 8.52681 0.00872602C8.23148 -0.012133 7.87499 -0.0373114 7.84647 0.472574C7.82654 0.83292 8.1462 0.856854 8.44394 0.879147C8.51752 0.884657 8.58976 0.890066 8.65521 0.900428ZM9.25534 2.00579L9.25533 2.00578C8.90862 1.94679 8.53197 1.88269 8.45587 2.34787C8.3801 2.81347 8.7358 2.86366 9.06636 2.91031C9.14393 2.92126 9.22011 2.93201 9.28901 2.94788C11.7512 3.51434 12.6085 4.43683 13.0138 6.95094C13.0256 7.02375 13.0304 7.1046 13.0352 7.18668V7.18669C13.0548 7.51787 13.0756 7.86918 13.5605 7.79342C13.8995 7.74028 13.8897 7.44795 13.8809 7.18502C13.8781 7.10008 13.8753 7.01821 13.8845 6.94847C13.9044 4.53473 11.8951 2.33779 9.43512 2.03371C9.37736 2.02655 9.31682 2.01625 9.25534 2.00579ZM9.05989 4.32406C9.15398 4.04249 9.40519 4.01397 9.66113 4.00746C10.7525 3.97957 12.0315 5.32592 12.0134 6.49075C12.0247 6.80915 11.9916 7.14444 11.6256 7.18938C11.3616 7.22147 11.1881 6.99345 11.1608 6.71205C11.0599 5.67524 10.5284 5.06216 9.51837 4.89526C9.21583 4.84523 8.9186 4.7449 9.05989 4.32406Z" fill="white"/>
</svg>
