<svg width="18" height="18" viewBox="0 0 18 18" fill="none" xmlns="http://www.w3.org/2000/svg">
<path fill-rule="evenodd" clip-rule="evenodd" d="M6.54067 4.66994C6.37003 4.26129 6.24064 4.24575 5.98214 4.2353C5.89414 4.23021 5.7961 4.22512 5.68734 4.22512C5.35102 4.22512 4.99943 4.32344 4.78727 4.54069C4.52877 4.80455 3.88733 5.42014 3.88733 6.68239C3.88733 7.94477 4.80789 9.16564 4.93205 9.33655C5.06144 9.50705 6.72684 12.1352 9.3128 13.2063C11.335 14.0444 11.9351 13.9667 12.3953 13.8685C13.0677 13.7238 13.9107 13.2268 14.1228 12.6269C14.3349 12.0267 14.3349 11.5145 14.2727 11.4059C14.2107 11.2973 14.0399 11.2354 13.7814 11.1059C13.5229 10.9765 12.266 10.3557 12.0282 10.2729C11.7954 10.1851 11.573 10.2161 11.3973 10.4645C11.149 10.8111 10.906 11.163 10.7094 11.375C10.5543 11.5405 10.3007 11.5613 10.0887 11.4733C9.80423 11.3545 9.00783 11.0748 8.02512 10.2006C7.26474 9.523 6.7476 8.67985 6.59773 8.4263C6.44772 8.16766 6.58219 8.01751 6.70113 7.87795C6.83052 7.71749 6.95454 7.60377 7.08379 7.45362C7.21318 7.30361 7.2855 7.22606 7.36828 7.05006C7.45628 6.87942 7.39413 6.70342 7.33212 6.57404C7.26997 6.44437 6.75283 5.18199 6.54067 4.66994ZM8.99734 0.199951C4.14606 0.199951 0.199951 4.14716 0.199951 8.99981C0.199951 10.9243 0.820626 12.7092 1.87566 14.1577L0.779101 17.4273L4.1616 16.3463C5.55283 17.2671 7.213 17.8 9.00256 17.8C13.8538 17.8 17.8 13.8525 17.8 9.00009C17.8 4.14744 13.8538 0.200226 9.00256 0.200226H8.99748V0.199951H8.99734Z" fill="white"/>
</svg>
